<svg width="7" height="10" viewBox="0 0 7 10" fill="none" xmlns="http://www.w3.org/2000/svg">
<path d="M4.08333 2.65625V0H0.4375C0.195052 0 0 0.208984 0 0.46875V9.53125C0 9.79102 0.195052 10 0.4375 10H6.5625C6.80495 10 7 9.79102 7 9.53125V3.125H4.52083C4.28021 3.125 4.08333 2.91406 4.08333 2.65625ZM5.25 7.26562C5.25 7.39453 5.15156 7.5 5.03125 7.5H1.96875C1.84844 7.5 1.75 7.39453 1.75 7.26562V7.10938C1.75 6.98047 1.84844 6.875 1.96875 6.875H5.03125C5.15156 6.875 5.25 6.98047 5.25 7.10938V7.26562ZM5.25 6.01562C5.25 6.14453 5.15156 6.25 5.03125 6.25H1.96875C1.84844 6.25 1.75 6.14453 1.75 6.01562V5.85938C1.75 5.73047 1.84844 5.625 1.96875 5.625H5.03125C5.15156 5.625 5.25 5.73047 5.25 5.85938V6.01562ZM5.25 4.60938V4.76562C5.25 4.89453 5.15156 5 5.03125 5H1.96875C1.84844 5 1.75 4.89453 1.75 4.76562V4.60938C1.75 4.48047 1.84844 4.375 1.96875 4.375H5.03125C5.15156 4.375 5.25 4.48047 5.25 4.60938ZM7 2.38086V2.5H4.66667V0H4.77786C4.89453 0 5.00573 0.0488281 5.08776 0.136719L6.8724 2.05078C6.95443 2.13867 7 2.25781 7 2.38086Z" fill="white"/>
</svg>
