<svg width="11" height="10" viewBox="0 0 11 10" fill="none" xmlns="http://www.w3.org/2000/svg">
<path d="M7.68854 1.62336L9.41111 3.38543C9.48368 3.45966 9.48368 3.58078 9.41111 3.65501L5.24028 7.92147L3.46806 8.12268C3.23125 8.15003 3.03073 7.94491 3.05747 7.70268L3.25417 5.88982L7.425 1.62336C7.49757 1.54913 7.61597 1.54913 7.68854 1.62336ZM10.7823 1.17601L9.85035 0.2227C9.56007 -0.0742333 9.08837 -0.0742333 8.79618 0.2227L8.12014 0.914241C8.04757 0.988474 8.04757 1.10959 8.12014 1.18383L9.84271 2.94589C9.91528 3.02012 10.0337 3.02012 10.1062 2.94589L10.7823 2.25435C11.0726 1.95546 11.0726 1.47294 10.7823 1.17601ZM7.33333 6.76109V8.74976H1.22222V2.49854H5.61076C5.67187 2.49854 5.72917 2.47314 5.77309 2.43016L6.53698 1.64876C6.68212 1.50029 6.57899 1.24829 6.37465 1.24829H0.916667C0.41059 1.24829 0 1.66829 0 2.18597V9.06232C0 9.58 0.41059 10 0.916667 10H7.63889C8.14497 10 8.55556 9.58 8.55556 9.06232V5.97968C8.55556 5.77066 8.3092 5.66712 8.16406 5.81364L7.40017 6.59504C7.35816 6.63997 7.33333 6.69857 7.33333 6.76109Z" fill="#6C6C6C"/>
</svg>
