<svg width="65" height="64" viewBox="0 0 65 64" fill="none" xmlns="http://www.w3.org/2000/svg">
<circle cx="32.5" cy="32" r="31" stroke="#3D3D3D" stroke-opacity="0.4" stroke-width="2"/>
<path d="M48.1519 30.0105C48.4468 29.2865 48.6123 28.4947 48.6123 27.6692C48.6123 24.0827 45.5193 21.1729 41.707 21.1729C40.29 21.1729 38.9665 21.5789 37.8732 22.2692C35.8807 19.021 32.1619 16.8421 27.8965 16.8421C21.5379 16.8421 16.3877 21.6872 16.3877 27.6692C16.3877 27.8519 16.3949 28.0346 16.4021 28.2173C12.374 29.5504 9.48245 33.1639 9.48245 37.4135C9.48245 42.7932 14.1219 47.1579 19.8403 47.1579H46.3105C51.396 47.1579 55.5175 43.2804 55.5175 38.4962C55.5175 34.3075 52.3526 30.809 48.1519 30.0105ZM37.7796 34.1654H33.0754V41.7444C33.0754 42.3398 32.5575 42.8271 31.9246 42.8271H28.4719C27.8389 42.8271 27.3211 42.3398 27.3211 41.7444V34.1654H22.6168C21.5882 34.1654 21.0775 33.0015 21.804 32.318L29.3854 25.1857C29.8314 24.7662 30.5651 24.7662 31.0111 25.1857L38.5925 32.318C39.3189 33.0015 38.8011 34.1654 37.7796 34.1654Z" fill="#3D3D3D" fill-opacity="0.8"/>
</svg>
