<?xml version="1.0" encoding="iso-8859-1"?>
<!-- Uploaded to: SVG Repo, www.svgrepo.com, Generator: SVG Repo Mixer Tools -->
<!DOCTYPE svg PUBLIC "-//W3C//DTD SVG 1.1//EN" "http://www.w3.org/Graphics/SVG/1.1/DTD/svg11.dtd">
<svg fill="#000000" version="1.1" id="Capa_1" xmlns="http://www.w3.org/2000/svg" xmlns:xlink="http://www.w3.org/1999/xlink" 
	 width="800px" height="800px" viewBox="0 0 30.725 30.725"
	 xml:space="preserve">
<g>
	<path d="M13.832,30.725c-0.642,0-1.279-0.244-1.769-0.732c-0.978-0.977-0.978-2.56,0-3.535l11.095-11.093L12.064,4.268
		c-0.978-0.979-0.978-2.562,0-3.535c0.978-0.978,2.56-0.978,3.535,0l14.628,14.631L15.6,29.992
		C15.111,30.48,14.473,30.725,13.832,30.725z M4.766,29.992l14.628-14.628L4.766,0.733c-0.979-0.978-2.561-0.978-3.535,0
		c-0.978,0.977-0.978,2.56,0,3.535l11.095,11.096L1.23,26.457c-0.978,0.978-0.978,2.561,0,3.535
		c0.488,0.488,1.127,0.732,1.769,0.732C3.64,30.725,4.275,30.48,4.766,29.992z"/>
</g>
</svg>