<svg width="10" height="10" viewBox="0 0 10 10" fill="none" xmlns="http://www.w3.org/2000/svg">
<path d="M5.78125 7.49963H4.21875C3.95898 7.49963 3.75 7.29062 3.75 7.03081V3.74908H2.03711C1.68945 3.74908 1.51562 3.3291 1.76172 3.08297L4.73242 0.109879C4.87891 -0.0366265 5.11914 -0.0366265 5.26562 0.109879L8.23828 3.08297C8.48438 3.3291 8.31055 3.74908 7.96289 3.74908H6.25V7.03081C6.25 7.29062 6.04102 7.49963 5.78125 7.49963ZM10 7.34336V9.53118C10 9.79098 9.79102 10 9.53125 10H0.46875C0.208984 10 0 9.79098 0 9.53118V7.34336C0 7.08356 0.208984 6.87454 0.46875 6.87454H3.125V7.03081C3.125 7.63442 3.61523 8.12473 4.21875 8.12473H5.78125C6.38477 8.12473 6.875 7.63442 6.875 7.03081V6.87454H9.53125C9.79102 6.87454 10 7.08356 10 7.34336ZM7.57812 9.06236C7.57812 8.84749 7.40234 8.67168 7.1875 8.67168C6.97266 8.67168 6.79688 8.84749 6.79688 9.06236C6.79688 9.27724 6.97266 9.45304 7.1875 9.45304C7.40234 9.45304 7.57812 9.27724 7.57812 9.06236ZM8.82812 9.06236C8.82812 8.84749 8.65234 8.67168 8.4375 8.67168C8.22266 8.67168 8.04688 8.84749 8.04688 9.06236C8.04688 9.27724 8.22266 9.45304 8.4375 9.45304C8.65234 9.45304 8.82812 9.27724 8.82812 9.06236Z" fill="white"/>
</svg>
