<svg width="39" height="50" viewBox="0 0 39 50" fill="none" xmlns="http://www.w3.org/2000/svg">
<path opacity="0.5" d="M39 11.9083V12.5H26V0H26.6154C27.2618 3.24996e-06 27.8818 0.246916 28.3389 0.686426L38.286 10.251C38.7431 10.6905 39 11.2867 39 11.9083ZM25.1875 15.625C23.8469 15.625 22.75 14.5703 22.75 13.2812V0H2.4375C1.09129 0 0 1.04932 0 2.34375V47.6562C0 48.9507 1.09129 50 2.4375 50H36.5625C37.9087 50 39 48.9507 39 47.6562V15.625H25.1875ZM11.4304 17.1875C14.1228 17.1875 16.3054 19.2861 16.3054 21.875C16.3054 24.4639 14.1228 26.5625 11.4304 26.5625C8.73793 26.5625 6.55535 24.4639 6.55535 21.875C6.55535 19.2861 8.73803 17.1875 11.4304 17.1875ZM32.5554 40.625H6.55535L6.60461 35.8901L10.6179 32.0312C11.0938 31.5736 11.8162 31.621 12.2921 32.0786L16.3054 35.9375L26.8186 25.8286C27.2945 25.371 28.0662 25.371 28.5422 25.8286L32.5554 29.6875V40.625Z" fill="black"/>
</svg>
